<svg xmlns="http://www.w3.org/2000/svg" xmlns:xlink="http://www.w3.org/1999/xlink" width="500" zoomAndPan="magnify" viewBox="0 0 375 374.999991" height="500" preserveAspectRatio="xMidYMid meet" version="1.0"><defs><clipPath id="41f35e510f"><path d="M 181 324 L 194 324 L 194 374.835938 L 181 374.835938 Z M 181 324 " clip-rule="nonzero"/></clipPath><clipPath id="6a7223e780"><path d="M 324 181 L 374.835938 181 L 374.835938 194 L 324 194 Z M 324 181 " clip-rule="nonzero"/></clipPath><clipPath id="fafd3708f3"><path d="M 87.929688 87.929688 L 287.070312 87.929688 L 287.070312 287.070312 L 87.929688 287.070312 Z M 87.929688 87.929688 " clip-rule="nonzero"/></clipPath><clipPath id="c04f53a375"><path d="M 187.5 87.929688 C 132.507812 87.929688 87.929688 132.507812 87.929688 187.5 C 87.929688 242.492188 132.507812 287.070312 187.5 287.070312 C 242.492188 287.070312 287.070312 242.492188 287.070312 187.5 C 287.070312 132.507812 242.492188 87.929688 187.5 87.929688 " clip-rule="nonzero"/></clipPath><clipPath id="dd33b710d4"><path d="M 109.015625 117 L 265.925781 117 L 265.925781 256.140625 L 109.015625 256.140625 Z M 109.015625 117 " clip-rule="nonzero"/></clipPath></defs><path fill="#ffffff" d="M 187.417969 312.363281 C 118.523438 312.363281 62.472656 256.3125 62.472656 187.417969 C 62.472656 118.523438 118.523438 62.472656 187.417969 62.472656 C 256.3125 62.472656 312.363281 118.523438 312.363281 187.417969 C 312.363281 256.3125 256.3125 312.363281 187.417969 312.363281 Z M 187.417969 74.96875 C 125.414062 74.96875 74.96875 125.414062 74.96875 187.417969 C 74.96875 249.421875 125.414062 299.867188 187.417969 299.867188 C 249.421875 299.867188 299.867188 249.421875 299.867188 187.417969 C 299.867188 125.414062 249.421875 74.96875 187.417969 74.96875 Z M 187.417969 74.96875 " fill-opacity="1" fill-rule="nonzero"/><g clip-path="url(#41f35e510f)"><path fill="#ffffff" d="M 187.417969 374.835938 C 183.96875 374.835938 181.171875 372.035156 181.171875 368.585938 L 181.171875 331.105469 C 181.171875 327.65625 183.96875 324.855469 187.417969 324.855469 C 190.867188 324.855469 193.664062 327.65625 193.664062 331.105469 L 193.664062 368.585938 C 193.664062 372.035156 190.867188 374.835938 187.417969 374.835938 Z M 187.417969 374.835938 " fill-opacity="1" fill-rule="nonzero"/></g><path fill="#ffffff" d="M 187.417969 49.976562 C 183.96875 49.976562 181.171875 47.179688 181.171875 43.730469 L 181.171875 6.246094 C 181.171875 2.796875 183.96875 0 187.417969 0 C 190.867188 0 193.664062 2.796875 193.664062 6.246094 L 193.664062 43.730469 C 193.664062 47.179688 190.867188 49.976562 187.417969 49.976562 Z M 187.417969 49.976562 " fill-opacity="1" fill-rule="nonzero"/><path fill="#ffffff" d="M 43.730469 193.664062 L 6.246094 193.664062 C 2.796875 193.664062 0 190.867188 0 187.417969 C 0 183.96875 2.796875 181.171875 6.246094 181.171875 L 43.730469 181.171875 C 47.179688 181.171875 49.976562 183.96875 49.976562 187.417969 C 49.976562 190.867188 47.179688 193.664062 43.730469 193.664062 Z M 43.730469 193.664062 " fill-opacity="1" fill-rule="nonzero"/><g clip-path="url(#6a7223e780)"><path fill="#ffffff" d="M 368.585938 193.664062 L 331.105469 193.664062 C 327.65625 193.664062 324.855469 190.867188 324.855469 187.417969 C 324.855469 183.96875 327.65625 181.171875 331.105469 181.171875 L 368.585938 181.171875 C 372.035156 181.171875 374.835938 183.96875 374.835938 187.417969 C 374.835938 190.867188 372.035156 193.664062 368.585938 193.664062 Z M 368.585938 193.664062 " fill-opacity="1" fill-rule="nonzero"/></g><path fill="#ffffff" d="M 156.179688 281.125 C 155.21875 281.125 154.25 280.90625 153.351562 280.449219 C 150.796875 279.152344 149.453125 276.273438 150.097656 273.472656 L 167.070312 199.910156 L 137.4375 199.910156 C 134.992188 199.910156 132.773438 198.480469 131.753906 196.261719 C 130.734375 194.039062 131.109375 191.429688 132.714844 189.578125 L 213.929688 95.871094 C 215.8125 93.695312 218.929688 93.089844 221.484375 94.390625 C 224.042969 95.6875 225.386719 98.570312 224.738281 101.367188 L 207.765625 174.921875 L 237.394531 174.921875 C 239.84375 174.921875 242.0625 176.351562 243.082031 178.570312 C 244.097656 180.796875 243.722656 183.40625 242.117188 185.253906 L 160.902344 278.964844 C 159.6875 280.375 157.949219 281.125 156.179688 281.125 Z M 151.121094 187.417969 L 174.921875 187.417969 C 176.828125 187.417969 178.628906 188.285156 179.808594 189.773438 C 180.996094 191.257812 181.433594 193.207031 181.007812 195.070312 L 167.917969 251.796875 L 223.714844 187.417969 L 199.910156 187.417969 C 198.007812 187.417969 196.207031 186.550781 195.019531 185.0625 C 193.839844 183.574219 193.394531 181.625 193.820312 179.765625 L 206.914062 123.039062 Z M 151.121094 187.417969 " fill-opacity="1" fill-rule="nonzero"/><path fill="#ffffff" d="M 315.523438 321.769531 C 313.925781 321.769531 312.324219 321.15625 311.105469 319.941406 L 284.605469 293.4375 C 282.164062 290.996094 282.164062 287.046875 284.605469 284.605469 C 287.046875 282.164062 290.996094 282.164062 293.4375 284.605469 L 319.941406 311.105469 C 322.382812 313.550781 322.382812 317.496094 319.941406 319.941406 C 318.722656 321.15625 317.121094 321.769531 315.523438 321.769531 Z M 315.523438 321.769531 " fill-opacity="1" fill-rule="nonzero"/><path fill="#ffffff" d="M 85.820312 92.058594 C 84.21875 92.058594 82.621094 91.445312 81.402344 90.230469 L 54.894531 63.726562 C 52.453125 61.285156 52.453125 57.335938 54.894531 54.894531 C 57.332031 52.453125 61.285156 52.453125 63.726562 54.894531 L 90.234375 81.394531 C 92.679688 83.839844 92.679688 87.785156 90.234375 90.230469 C 89.015625 91.453125 87.410156 92.058594 85.820312 92.058594 Z M 85.820312 92.058594 " fill-opacity="1" fill-rule="nonzero"/><path fill="#ffffff" d="M 59.3125 321.769531 C 57.710938 321.769531 56.113281 321.15625 54.894531 319.941406 C 52.453125 317.496094 52.453125 313.550781 54.894531 311.105469 L 81.402344 284.605469 C 83.84375 282.164062 87.796875 282.164062 90.234375 284.605469 C 92.679688 287.046875 92.679688 290.996094 90.234375 293.4375 L 63.726562 319.941406 C 62.511719 321.15625 60.910156 321.769531 59.3125 321.769531 Z M 59.3125 321.769531 " fill-opacity="1" fill-rule="nonzero"/><path fill="#ffffff" d="M 289.023438 92.058594 C 287.421875 92.058594 285.824219 91.445312 284.605469 90.230469 C 282.164062 87.785156 282.164062 83.839844 284.605469 81.394531 L 311.105469 54.894531 C 313.550781 52.453125 317.496094 52.453125 319.941406 54.894531 C 322.382812 57.335938 322.382812 61.285156 319.941406 63.726562 L 293.4375 90.230469 C 292.214844 91.453125 290.621094 92.058594 289.023438 92.058594 Z M 289.023438 92.058594 " fill-opacity="1" fill-rule="nonzero"/><g clip-path="url(#fafd3708f3)"><g clip-path="url(#c04f53a375)"><path fill="#ffffff" d="M 87.929688 87.929688 L 287.070312 87.929688 L 287.070312 287.070312 L 87.929688 287.070312 Z M 87.929688 87.929688 " fill-opacity="1" fill-rule="nonzero"/></g></g><g clip-path="url(#dd33b710d4)"><path fill="#000000" d="M 229.496094 171.902344 C 232.585938 169.984375 234.800781 167.039062 235.75 163.546875 C 236.75 159.871094 236.238281 156.035156 234.304688 152.742188 C 230.414062 146.105469 221.878906 143.722656 215.050781 147.265625 L 202.0625 125.121094 C 200.347656 122.191406 197.5625 120.09375 194.226562 119.210938 C 190.890625 118.332031 187.414062 118.777344 184.441406 120.46875 C 181.464844 122.160156 179.335938 124.902344 178.441406 128.1875 C 177.769531 130.660156 177.859375 133.214844 178.679688 135.574219 C 172.511719 150.878906 159.457031 166.488281 141.734375 179.804688 C 141.460938 179.621094 141.15625 179.480469 140.832031 179.394531 C 140.050781 179.191406 139.21875 179.296875 138.515625 179.695312 L 121.945312 189.117188 C 116.371094 192.285156 112.378906 197.421875 110.703125 203.582031 C 109.027344 209.742188 109.875 216.15625 113.09375 221.648438 C 117.570312 229.277344 125.714844 233.550781 134.082031 233.550781 C 138.179688 233.550781 142.335938 232.523438 146.132812 230.363281 L 147.082031 229.824219 L 165.355469 253.316406 C 166.617188 254.941406 168.378906 255.894531 170.449219 256.078125 C 170.683594 256.101562 170.914062 256.109375 171.144531 256.109375 C 172.945312 256.109375 174.597656 255.476562 175.960938 254.261719 L 180.992188 249.761719 C 183.792969 247.261719 184.175781 243.140625 181.886719 240.175781 L 164.703125 217.949219 C 185.113281 209.636719 205.183594 206.382812 221.597656 208.757812 C 224.085938 211.558594 227.667969 213.097656 231.328125 213.097656 C 233.515625 213.097656 235.734375 212.550781 237.757812 211.398438 C 243.917969 207.898438 246.039062 200.113281 242.480469 194.046875 Z M 229.027344 155.742188 C 230.144531 157.648438 230.441406 159.867188 229.863281 161.992188 C 229.332031 163.9375 228.128906 165.585938 226.441406 166.695312 L 218.101562 152.46875 C 222.011719 150.578125 226.816406 151.972656 229.027344 155.742188 Z M 134.070312 227.546875 C 127.8125 227.546875 121.71875 224.351562 118.375 218.644531 C 115.96875 214.546875 115.335938 209.746094 116.589844 205.136719 C 117.84375 200.523438 120.828125 196.679688 124.996094 194.3125 L 138.925781 186.394531 L 157.015625 217.246094 L 143.085938 225.164062 C 140.242188 226.78125 137.136719 227.550781 134.070312 227.546875 Z M 176.894531 245.320312 L 171.863281 249.816406 C 171.597656 250.050781 171.351562 250.132812 170.996094 250.101562 C 170.636719 250.070312 170.414062 249.949219 170.195312 249.667969 L 152.40625 226.796875 L 160.378906 222.265625 L 177.035156 243.8125 C 177.394531 244.277344 177.335938 244.925781 176.894531 245.320312 Z M 161.4375 212.785156 L 145.0625 184.855469 C 162.121094 172.109375 175.148438 157.226562 182.347656 142.308594 L 217.503906 202.265625 C 200.78125 200.945312 181.175781 204.609375 161.4375 212.785156 Z M 234.710938 206.199219 C 231.460938 208.046875 227.292969 206.945312 225.414062 203.75 L 184.996094 134.820312 C 183.121094 131.621094 184.238281 127.515625 187.488281 125.667969 C 188.527344 125.078125 189.683594 124.777344 190.859375 124.777344 C 191.457031 124.777344 192.054688 124.851562 192.648438 125.011719 C 194.414062 125.476562 195.882812 126.578125 196.785156 128.121094 L 237.203125 197.046875 C 239.078125 200.246094 237.960938 204.351562 234.710938 206.199219 Z M 238.027344 150.628906 C 237.183594 149.191406 237.683594 147.355469 239.140625 146.527344 L 251.375 139.574219 C 252.835938 138.742188 254.699219 139.234375 255.539062 140.671875 C 256.382812 142.105469 255.882812 143.941406 254.425781 144.769531 L 242.1875 151.726562 C 241.710938 152 241.183594 152.128906 240.667969 152.128906 C 239.613281 152.128906 238.589844 151.589844 238.027344 150.628906 Z M 223.917969 131.300781 L 231.371094 118.589844 C 232.210938 117.15625 234.078125 116.664062 235.535156 117.492188 C 236.992188 118.320312 237.492188 120.15625 236.648438 121.59375 L 229.199219 134.300781 C 228.632812 135.261719 227.609375 135.800781 226.554688 135.800781 C 226.039062 135.800781 225.515625 135.671875 225.035156 135.398438 C 223.578125 134.570312 223.078125 132.734375 223.917969 131.300781 Z M 265.925781 169.320312 C 265.925781 170.976562 264.558594 172.320312 262.875 172.320312 L 247.972656 172.320312 C 246.289062 172.320312 244.925781 170.976562 244.925781 169.320312 C 244.925781 167.660156 246.289062 166.320312 247.972656 166.320312 L 262.875 166.320312 C 264.558594 166.320312 265.925781 167.660156 265.925781 169.320312 Z M 265.925781 169.320312 " fill-opacity="1" fill-rule="nonzero"/></g></svg>