<svg xmlns="http://www.w3.org/2000/svg" xmlns:xlink="http://www.w3.org/1999/xlink" width="248" zoomAndPan="magnify" viewBox="0 0 186 48" height="64" preserveAspectRatio="xMidYMid meet" version="1.0"><defs><g/><clipPath id="0e7ed56e71"><path d="M 17 35 L 19 35 L 19 39.402344 L 17 39.402344 Z M 17 35 " clip-rule="nonzero"/></clipPath><clipPath id="796493c497"><path d="M 17 7.707031 L 19 7.707031 L 19 12 L 17 12 Z M 17 7.707031 " clip-rule="nonzero"/></clipPath><clipPath id="2221ac3d39"><path d="M 1.898438 23 L 7 23 L 7 25 L 1.898438 25 Z M 1.898438 23 " clip-rule="nonzero"/></clipPath><clipPath id="9a9be24a52"><path d="M 29 23 L 33.59375 23 L 33.59375 25 L 29 25 Z M 29 23 " clip-rule="nonzero"/></clipPath><clipPath id="875d2f3df0"><path d="M 9.308594 15.117188 L 26.09375 15.117188 L 26.09375 31.902344 L 9.308594 31.902344 Z M 9.308594 15.117188 " clip-rule="nonzero"/></clipPath><clipPath id="6cc5ec3544"><path d="M 17.699219 15.117188 C 13.066406 15.117188 9.308594 18.875 9.308594 23.511719 C 9.308594 28.144531 13.066406 31.902344 17.699219 31.902344 C 22.335938 31.902344 26.09375 28.144531 26.09375 23.511719 C 26.09375 18.875 22.335938 15.117188 17.699219 15.117188 " clip-rule="nonzero"/></clipPath><clipPath id="071758dc66"><path d="M 11.085938 17.539062 L 24.054688 17.539062 L 24.054688 29.785156 L 11.085938 29.785156 Z M 11.085938 17.539062 " clip-rule="nonzero"/></clipPath></defs><g fill="#ffffff" fill-opacity="1"><g transform="translate(38.535831, 26.965668)"><g><path d="M 7.25 -2.296875 L 2.734375 -2.296875 L 1.90625 0 L 0.484375 0 L 4.21875 -10.265625 L 5.78125 -10.265625 L 9.5 0 L 8.078125 0 Z M 6.859375 -3.390625 L 4.984375 -8.609375 L 3.125 -3.390625 Z M 6.859375 -3.390625 "/></g></g></g><g fill="#ffffff" fill-opacity="1"><g transform="translate(48.523202, 26.965668)"><g><path d="M 2.484375 -6.796875 C 2.722656 -7.265625 3.0625 -7.625 3.5 -7.875 C 3.9375 -8.132812 4.472656 -8.265625 5.109375 -8.265625 L 5.109375 -6.875 L 4.75 -6.875 C 3.238281 -6.875 2.484375 -6.054688 2.484375 -4.421875 L 2.484375 0 L 1.140625 0 L 1.140625 -8.125 L 2.484375 -8.125 Z M 2.484375 -6.796875 "/></g></g></g><g fill="#ffffff" fill-opacity="1"><g transform="translate(54.050334, 26.965668)"><g><path d="M 0.640625 -4.078125 C 0.640625 -4.910156 0.804688 -5.640625 1.140625 -6.265625 C 1.472656 -6.898438 1.9375 -7.390625 2.53125 -7.734375 C 3.132812 -8.078125 3.820312 -8.25 4.59375 -8.25 C 5.59375 -8.25 6.414062 -8.003906 7.0625 -7.515625 C 7.707031 -7.035156 8.132812 -6.367188 8.34375 -5.515625 L 6.890625 -5.515625 C 6.753906 -6.003906 6.484375 -6.390625 6.078125 -6.671875 C 5.679688 -6.960938 5.1875 -7.109375 4.59375 -7.109375 C 3.820312 -7.109375 3.195312 -6.84375 2.71875 -6.3125 C 2.25 -5.789062 2.015625 -5.046875 2.015625 -4.078125 C 2.015625 -3.097656 2.25 -2.335938 2.71875 -1.796875 C 3.195312 -1.265625 3.820312 -1 4.59375 -1 C 5.1875 -1 5.679688 -1.140625 6.078125 -1.421875 C 6.472656 -1.703125 6.742188 -2.097656 6.890625 -2.609375 L 8.34375 -2.609375 C 8.125 -1.773438 7.6875 -1.109375 7.03125 -0.609375 C 6.382812 -0.109375 5.570312 0.140625 4.59375 0.140625 C 3.820312 0.140625 3.132812 -0.03125 2.53125 -0.375 C 1.9375 -0.726562 1.472656 -1.21875 1.140625 -1.84375 C 0.804688 -2.476562 0.640625 -3.222656 0.640625 -4.078125 Z M 0.640625 -4.078125 "/></g></g></g><g fill="#ffffff" fill-opacity="1"><g transform="translate(63.04489, 26.965668)"><g><path d="M 0.640625 -4.09375 C 0.640625 -4.914062 0.804688 -5.640625 1.140625 -6.265625 C 1.472656 -6.898438 1.929688 -7.390625 2.515625 -7.734375 C 3.109375 -8.078125 3.765625 -8.25 4.484375 -8.25 C 5.191406 -8.25 5.804688 -8.09375 6.328125 -7.78125 C 6.859375 -7.476562 7.253906 -7.097656 7.515625 -6.640625 L 7.515625 -8.125 L 8.875 -8.125 L 8.875 0 L 7.515625 0 L 7.515625 -1.515625 C 7.242188 -1.035156 6.84375 -0.640625 6.3125 -0.328125 C 5.789062 -0.015625 5.175781 0.140625 4.46875 0.140625 C 3.75 0.140625 3.097656 -0.0351562 2.515625 -0.390625 C 1.929688 -0.753906 1.472656 -1.253906 1.140625 -1.890625 C 0.804688 -2.535156 0.640625 -3.269531 0.640625 -4.09375 Z M 7.515625 -4.078125 C 7.515625 -4.679688 7.390625 -5.210938 7.140625 -5.671875 C 6.890625 -6.128906 6.554688 -6.476562 6.140625 -6.71875 C 5.722656 -6.957031 5.257812 -7.078125 4.75 -7.078125 C 4.25 -7.078125 3.789062 -6.957031 3.375 -6.71875 C 2.957031 -6.488281 2.625 -6.144531 2.375 -5.6875 C 2.132812 -5.226562 2.015625 -4.695312 2.015625 -4.09375 C 2.015625 -3.46875 2.132812 -2.925781 2.375 -2.46875 C 2.625 -2.007812 2.957031 -1.65625 3.375 -1.40625 C 3.789062 -1.164062 4.25 -1.046875 4.75 -1.046875 C 5.257812 -1.046875 5.722656 -1.164062 6.140625 -1.40625 C 6.554688 -1.65625 6.890625 -2.007812 7.140625 -2.46875 C 7.390625 -2.925781 7.515625 -3.460938 7.515625 -4.078125 Z M 7.515625 -4.078125 "/></g></g></g><g fill="#ffffff" fill-opacity="1"><g transform="translate(73.061895, 26.965668)"><g><path d="M 5.09375 -8.265625 C 6.082031 -8.265625 6.878906 -7.960938 7.484375 -7.359375 C 8.097656 -6.765625 8.40625 -5.90625 8.40625 -4.78125 L 8.40625 0 L 7.078125 0 L 7.078125 -4.59375 C 7.078125 -5.40625 6.875 -6.023438 6.46875 -6.453125 C 6.0625 -6.878906 5.507812 -7.09375 4.8125 -7.09375 C 4.101562 -7.09375 3.535156 -6.867188 3.109375 -6.421875 C 2.691406 -5.984375 2.484375 -5.335938 2.484375 -4.484375 L 2.484375 0 L 1.140625 0 L 1.140625 -8.125 L 2.484375 -8.125 L 2.484375 -6.96875 C 2.753906 -7.375 3.117188 -7.691406 3.578125 -7.921875 C 4.035156 -8.148438 4.539062 -8.265625 5.09375 -8.265625 Z M 5.09375 -8.265625 "/></g></g></g><g fill="#ffffff" fill-opacity="1"><g transform="translate(82.545446, 26.965668)"><g><path d="M 8.546875 -4.375 C 8.546875 -4.113281 8.53125 -3.84375 8.5 -3.5625 L 2.015625 -3.5625 C 2.066406 -2.757812 2.335938 -2.128906 2.828125 -1.671875 C 3.328125 -1.222656 3.9375 -1 4.65625 -1 C 5.238281 -1 5.722656 -1.132812 6.109375 -1.40625 C 6.492188 -1.6875 6.769531 -2.050781 6.9375 -2.5 L 8.390625 -2.5 C 8.171875 -1.71875 7.734375 -1.082031 7.078125 -0.59375 C 6.429688 -0.101562 5.625 0.140625 4.65625 0.140625 C 3.882812 0.140625 3.191406 -0.03125 2.578125 -0.375 C 1.972656 -0.726562 1.5 -1.222656 1.15625 -1.859375 C 0.8125 -2.492188 0.640625 -3.234375 0.640625 -4.078125 C 0.640625 -4.910156 0.804688 -5.644531 1.140625 -6.28125 C 1.472656 -6.914062 1.941406 -7.398438 2.546875 -7.734375 C 3.160156 -8.078125 3.863281 -8.25 4.65625 -8.25 C 5.425781 -8.25 6.101562 -8.082031 6.6875 -7.75 C 7.28125 -7.414062 7.738281 -6.953125 8.0625 -6.359375 C 8.382812 -5.773438 8.546875 -5.113281 8.546875 -4.375 Z M 7.15625 -4.65625 C 7.15625 -5.164062 7.039062 -5.601562 6.8125 -5.96875 C 6.582031 -6.34375 6.269531 -6.625 5.875 -6.8125 C 5.488281 -7.007812 5.0625 -7.109375 4.59375 -7.109375 C 3.90625 -7.109375 3.320312 -6.890625 2.84375 -6.453125 C 2.375 -6.023438 2.101562 -5.425781 2.03125 -4.65625 Z M 7.15625 -4.65625 "/></g></g></g><g fill="#ffffff" fill-opacity="1"><g transform="translate(91.732635, 26.965668)"><g/></g></g><g fill="#ffffff" fill-opacity="1"><g transform="translate(95.689053, 26.965668)"><g><path d="M 8.046875 -7.296875 C 8.046875 -6.441406 7.75 -5.726562 7.15625 -5.15625 C 6.570312 -4.59375 5.675781 -4.3125 4.46875 -4.3125 L 2.484375 -4.3125 L 2.484375 0 L 1.140625 0 L 1.140625 -10.328125 L 4.46875 -10.328125 C 5.632812 -10.328125 6.519531 -10.046875 7.125 -9.484375 C 7.738281 -8.921875 8.046875 -8.191406 8.046875 -7.296875 Z M 4.46875 -5.421875 C 5.21875 -5.421875 5.769531 -5.582031 6.125 -5.90625 C 6.488281 -6.238281 6.671875 -6.703125 6.671875 -7.296875 C 6.671875 -8.578125 5.9375 -9.21875 4.46875 -9.21875 L 2.484375 -9.21875 L 2.484375 -5.421875 Z M 4.46875 -5.421875 "/></g></g></g><g fill="#ffffff" fill-opacity="1"><g transform="translate(104.268708, 26.965668)"><g><path d="M 2.484375 -6.796875 C 2.722656 -7.265625 3.0625 -7.625 3.5 -7.875 C 3.9375 -8.132812 4.472656 -8.265625 5.109375 -8.265625 L 5.109375 -6.875 L 4.75 -6.875 C 3.238281 -6.875 2.484375 -6.054688 2.484375 -4.421875 L 2.484375 0 L 1.140625 0 L 1.140625 -8.125 L 2.484375 -8.125 Z M 2.484375 -6.796875 "/></g></g></g><g fill="#ffffff" fill-opacity="1"><g transform="translate(109.79584, 26.965668)"><g><path d="M 4.6875 0.140625 C 3.925781 0.140625 3.234375 -0.03125 2.609375 -0.375 C 1.992188 -0.726562 1.507812 -1.222656 1.15625 -1.859375 C 0.8125 -2.492188 0.640625 -3.234375 0.640625 -4.078125 C 0.640625 -4.898438 0.816406 -5.628906 1.171875 -6.265625 C 1.535156 -6.910156 2.023438 -7.398438 2.640625 -7.734375 C 3.265625 -8.078125 3.960938 -8.25 4.734375 -8.25 C 5.503906 -8.25 6.203125 -8.078125 6.828125 -7.734375 C 7.453125 -7.398438 7.941406 -6.914062 8.296875 -6.28125 C 8.660156 -5.644531 8.84375 -4.910156 8.84375 -4.078125 C 8.84375 -3.234375 8.65625 -2.492188 8.28125 -1.859375 C 7.914062 -1.222656 7.414062 -0.726562 6.78125 -0.375 C 6.15625 -0.03125 5.457031 0.140625 4.6875 0.140625 Z M 4.6875 -1.046875 C 5.164062 -1.046875 5.617188 -1.160156 6.046875 -1.390625 C 6.472656 -1.617188 6.816406 -1.957031 7.078125 -2.40625 C 7.335938 -2.863281 7.46875 -3.421875 7.46875 -4.078125 C 7.46875 -4.722656 7.335938 -5.269531 7.078125 -5.71875 C 6.816406 -6.175781 6.476562 -6.515625 6.0625 -6.734375 C 5.65625 -6.960938 5.207031 -7.078125 4.71875 -7.078125 C 4.226562 -7.078125 3.773438 -6.960938 3.359375 -6.734375 C 2.953125 -6.515625 2.625 -6.175781 2.375 -5.71875 C 2.132812 -5.269531 2.015625 -4.722656 2.015625 -4.078125 C 2.015625 -3.410156 2.132812 -2.847656 2.375 -2.390625 C 2.613281 -1.941406 2.9375 -1.601562 3.34375 -1.375 C 3.75 -1.15625 4.195312 -1.046875 4.6875 -1.046875 Z M 4.6875 -1.046875 "/></g></g></g><g fill="#ffffff" fill-opacity="1"><g transform="translate(119.279391, 26.965668)"><g><path d="M 0.640625 -4.09375 C 0.640625 -4.914062 0.804688 -5.640625 1.140625 -6.265625 C 1.472656 -6.898438 1.929688 -7.390625 2.515625 -7.734375 C 3.109375 -8.078125 3.769531 -8.25 4.5 -8.25 C 5.132812 -8.25 5.722656 -8.101562 6.265625 -7.8125 C 6.804688 -7.519531 7.222656 -7.140625 7.515625 -6.671875 L 7.515625 -10.96875 L 8.875 -10.96875 L 8.875 0 L 7.515625 0 L 7.515625 -1.53125 C 7.242188 -1.039062 6.847656 -0.640625 6.328125 -0.328125 C 5.804688 -0.015625 5.191406 0.140625 4.484375 0.140625 C 3.765625 0.140625 3.109375 -0.0351562 2.515625 -0.390625 C 1.929688 -0.753906 1.472656 -1.253906 1.140625 -1.890625 C 0.804688 -2.535156 0.640625 -3.269531 0.640625 -4.09375 Z M 7.515625 -4.078125 C 7.515625 -4.679688 7.390625 -5.210938 7.140625 -5.671875 C 6.890625 -6.128906 6.554688 -6.476562 6.140625 -6.71875 C 5.722656 -6.957031 5.257812 -7.078125 4.75 -7.078125 C 4.25 -7.078125 3.789062 -6.957031 3.375 -6.71875 C 2.957031 -6.488281 2.625 -6.144531 2.375 -5.6875 C 2.132812 -5.226562 2.015625 -4.695312 2.015625 -4.09375 C 2.015625 -3.46875 2.132812 -2.925781 2.375 -2.46875 C 2.625 -2.007812 2.957031 -1.65625 3.375 -1.40625 C 3.789062 -1.164062 4.25 -1.046875 4.75 -1.046875 C 5.257812 -1.046875 5.722656 -1.164062 6.140625 -1.40625 C 6.554688 -1.65625 6.890625 -2.007812 7.140625 -2.46875 C 7.390625 -2.925781 7.515625 -3.460938 7.515625 -4.078125 Z M 7.515625 -4.078125 "/></g></g></g><g fill="#ffffff" fill-opacity="1"><g transform="translate(129.296396, 26.965668)"><g><path d="M 8.34375 -8.125 L 8.34375 0 L 6.984375 0 L 6.984375 -1.203125 C 6.734375 -0.785156 6.378906 -0.457031 5.921875 -0.21875 C 5.460938 0.0078125 4.957031 0.125 4.40625 0.125 C 3.769531 0.125 3.195312 -0.00390625 2.6875 -0.265625 C 2.1875 -0.535156 1.789062 -0.929688 1.5 -1.453125 C 1.207031 -1.972656 1.0625 -2.609375 1.0625 -3.359375 L 1.0625 -8.125 L 2.40625 -8.125 L 2.40625 -3.546875 C 2.40625 -2.742188 2.601562 -2.125 3 -1.6875 C 3.40625 -1.257812 3.960938 -1.046875 4.671875 -1.046875 C 5.390625 -1.046875 5.953125 -1.269531 6.359375 -1.71875 C 6.773438 -2.164062 6.984375 -2.8125 6.984375 -3.65625 L 6.984375 -8.125 Z M 8.34375 -8.125 "/></g></g></g><g fill="#ffffff" fill-opacity="1"><g transform="translate(138.779947, 26.965668)"><g><path d="M 0.640625 -4.078125 C 0.640625 -4.910156 0.804688 -5.640625 1.140625 -6.265625 C 1.472656 -6.898438 1.9375 -7.390625 2.53125 -7.734375 C 3.132812 -8.078125 3.820312 -8.25 4.59375 -8.25 C 5.59375 -8.25 6.414062 -8.003906 7.0625 -7.515625 C 7.707031 -7.035156 8.132812 -6.367188 8.34375 -5.515625 L 6.890625 -5.515625 C 6.753906 -6.003906 6.484375 -6.390625 6.078125 -6.671875 C 5.679688 -6.960938 5.1875 -7.109375 4.59375 -7.109375 C 3.820312 -7.109375 3.195312 -6.84375 2.71875 -6.3125 C 2.25 -5.789062 2.015625 -5.046875 2.015625 -4.078125 C 2.015625 -3.097656 2.25 -2.335938 2.71875 -1.796875 C 3.195312 -1.265625 3.820312 -1 4.59375 -1 C 5.1875 -1 5.679688 -1.140625 6.078125 -1.421875 C 6.472656 -1.703125 6.742188 -2.097656 6.890625 -2.609375 L 8.34375 -2.609375 C 8.125 -1.773438 7.6875 -1.109375 7.03125 -0.609375 C 6.382812 -0.109375 5.570312 0.140625 4.59375 0.140625 C 3.820312 0.140625 3.132812 -0.03125 2.53125 -0.375 C 1.9375 -0.726562 1.472656 -1.21875 1.140625 -1.84375 C 0.804688 -2.476562 0.640625 -3.222656 0.640625 -4.078125 Z M 0.640625 -4.078125 "/></g></g></g><g fill="#ffffff" fill-opacity="1"><g transform="translate(147.774503, 26.965668)"><g><path d="M 2.78125 -7 L 2.78125 -2.21875 C 2.78125 -1.820312 2.863281 -1.539062 3.03125 -1.375 C 3.195312 -1.21875 3.488281 -1.140625 3.90625 -1.140625 L 4.90625 -1.140625 L 4.90625 0 L 3.6875 0 C 2.9375 0 2.375 -0.171875 2 -0.515625 C 1.625 -0.859375 1.4375 -1.425781 1.4375 -2.21875 L 1.4375 -7 L 0.390625 -7 L 0.390625 -8.125 L 1.4375 -8.125 L 1.4375 -10.15625 L 2.78125 -10.15625 L 2.78125 -8.125 L 4.90625 -8.125 L 4.90625 -7 Z M 2.78125 -7 "/></g></g></g><g fill="#ffffff" fill-opacity="1"><g transform="translate(153.168272, 26.965668)"><g><path d="M 1.84375 -9.4375 C 1.582031 -9.4375 1.363281 -9.523438 1.1875 -9.703125 C 1.007812 -9.878906 0.921875 -10.097656 0.921875 -10.359375 C 0.921875 -10.609375 1.007812 -10.820312 1.1875 -11 C 1.363281 -11.175781 1.582031 -11.265625 1.84375 -11.265625 C 2.082031 -11.265625 2.285156 -11.175781 2.453125 -11 C 2.628906 -10.820312 2.71875 -10.609375 2.71875 -10.359375 C 2.71875 -10.097656 2.628906 -9.878906 2.453125 -9.703125 C 2.285156 -9.523438 2.082031 -9.4375 1.84375 -9.4375 Z M 2.484375 -8.125 L 2.484375 0 L 1.140625 0 L 1.140625 -8.125 Z M 2.484375 -8.125 "/></g></g></g><g fill="#ffffff" fill-opacity="1"><g transform="translate(156.813518, 26.965668)"><g><path d="M 4.6875 0.140625 C 3.925781 0.140625 3.234375 -0.03125 2.609375 -0.375 C 1.992188 -0.726562 1.507812 -1.222656 1.15625 -1.859375 C 0.8125 -2.492188 0.640625 -3.234375 0.640625 -4.078125 C 0.640625 -4.898438 0.816406 -5.628906 1.171875 -6.265625 C 1.535156 -6.910156 2.023438 -7.398438 2.640625 -7.734375 C 3.265625 -8.078125 3.960938 -8.25 4.734375 -8.25 C 5.503906 -8.25 6.203125 -8.078125 6.828125 -7.734375 C 7.453125 -7.398438 7.941406 -6.914062 8.296875 -6.28125 C 8.660156 -5.644531 8.84375 -4.910156 8.84375 -4.078125 C 8.84375 -3.234375 8.65625 -2.492188 8.28125 -1.859375 C 7.914062 -1.222656 7.414062 -0.726562 6.78125 -0.375 C 6.15625 -0.03125 5.457031 0.140625 4.6875 0.140625 Z M 4.6875 -1.046875 C 5.164062 -1.046875 5.617188 -1.160156 6.046875 -1.390625 C 6.472656 -1.617188 6.816406 -1.957031 7.078125 -2.40625 C 7.335938 -2.863281 7.46875 -3.421875 7.46875 -4.078125 C 7.46875 -4.722656 7.335938 -5.269531 7.078125 -5.71875 C 6.816406 -6.175781 6.476562 -6.515625 6.0625 -6.734375 C 5.65625 -6.960938 5.207031 -7.078125 4.71875 -7.078125 C 4.226562 -7.078125 3.773438 -6.960938 3.359375 -6.734375 C 2.953125 -6.515625 2.625 -6.175781 2.375 -5.71875 C 2.132812 -5.269531 2.015625 -4.722656 2.015625 -4.078125 C 2.015625 -3.410156 2.132812 -2.847656 2.375 -2.390625 C 2.613281 -1.941406 2.9375 -1.601562 3.34375 -1.375 C 3.75 -1.15625 4.195312 -1.046875 4.6875 -1.046875 Z M 4.6875 -1.046875 "/></g></g></g><g fill="#ffffff" fill-opacity="1"><g transform="translate(166.297069, 26.965668)"><g><path d="M 5.09375 -8.265625 C 6.082031 -8.265625 6.878906 -7.960938 7.484375 -7.359375 C 8.097656 -6.765625 8.40625 -5.90625 8.40625 -4.78125 L 8.40625 0 L 7.078125 0 L 7.078125 -4.59375 C 7.078125 -5.40625 6.875 -6.023438 6.46875 -6.453125 C 6.0625 -6.878906 5.507812 -7.09375 4.8125 -7.09375 C 4.101562 -7.09375 3.535156 -6.867188 3.109375 -6.421875 C 2.691406 -5.984375 2.484375 -5.335938 2.484375 -4.484375 L 2.484375 0 L 1.140625 0 L 1.140625 -8.125 L 2.484375 -8.125 L 2.484375 -6.96875 C 2.753906 -7.375 3.117188 -7.691406 3.578125 -7.921875 C 4.035156 -8.148438 4.539062 -8.265625 5.09375 -8.265625 Z M 5.09375 -8.265625 "/></g></g></g><g fill="#ffffff" fill-opacity="1"><g transform="translate(175.78062, 26.965668)"><g><path d="M 4.015625 0.140625 C 3.390625 0.140625 2.828125 0.0351562 2.328125 -0.171875 C 1.835938 -0.390625 1.445312 -0.6875 1.15625 -1.0625 C 0.875 -1.445312 0.722656 -1.890625 0.703125 -2.390625 L 2.09375 -2.390625 C 2.125 -1.984375 2.3125 -1.648438 2.65625 -1.390625 C 3 -1.128906 3.445312 -1 4 -1 C 4.507812 -1 4.910156 -1.113281 5.203125 -1.34375 C 5.503906 -1.570312 5.65625 -1.859375 5.65625 -2.203125 C 5.65625 -2.554688 5.492188 -2.820312 5.171875 -3 C 4.859375 -3.175781 4.375 -3.347656 3.71875 -3.515625 C 3.113281 -3.671875 2.617188 -3.828125 2.234375 -3.984375 C 1.859375 -4.148438 1.535156 -4.394531 1.265625 -4.71875 C 0.992188 -5.039062 0.859375 -5.460938 0.859375 -5.984375 C 0.859375 -6.398438 0.976562 -6.78125 1.21875 -7.125 C 1.46875 -7.46875 1.820312 -7.738281 2.28125 -7.9375 C 2.738281 -8.144531 3.257812 -8.25 3.84375 -8.25 C 4.738281 -8.25 5.460938 -8.019531 6.015625 -7.5625 C 6.566406 -7.113281 6.863281 -6.492188 6.90625 -5.703125 L 5.546875 -5.703125 C 5.523438 -6.128906 5.359375 -6.46875 5.046875 -6.71875 C 4.734375 -6.976562 4.316406 -7.109375 3.796875 -7.109375 C 3.304688 -7.109375 2.914062 -7.003906 2.625 -6.796875 C 2.34375 -6.585938 2.203125 -6.316406 2.203125 -5.984375 C 2.203125 -5.710938 2.285156 -5.488281 2.453125 -5.3125 C 2.628906 -5.144531 2.847656 -5.007812 3.109375 -4.90625 C 3.378906 -4.800781 3.742188 -4.6875 4.203125 -4.5625 C 4.785156 -4.40625 5.257812 -4.25 5.625 -4.09375 C 5.988281 -3.9375 6.300781 -3.707031 6.5625 -3.40625 C 6.832031 -3.101562 6.972656 -2.703125 6.984375 -2.203125 C 6.984375 -1.765625 6.859375 -1.363281 6.609375 -1 C 6.359375 -0.644531 6.007812 -0.363281 5.5625 -0.15625 C 5.113281 0.0390625 4.597656 0.140625 4.015625 0.140625 Z M 4.015625 0.140625 "/></g></g></g><path fill="#ffffff" d="M 17.746094 34.121094 C 11.921875 34.121094 7.179688 29.382812 7.179688 23.554688 C 7.179688 17.730469 11.921875 12.988281 17.746094 12.988281 C 23.570312 12.988281 28.3125 17.730469 28.3125 23.554688 C 28.3125 29.382812 23.570312 34.121094 17.746094 34.121094 Z M 17.746094 14.046875 C 12.503906 14.046875 8.238281 18.3125 8.238281 23.554688 C 8.238281 28.796875 12.503906 33.0625 17.746094 33.0625 C 22.988281 33.0625 27.253906 28.796875 27.253906 23.554688 C 27.253906 18.3125 22.988281 14.046875 17.746094 14.046875 Z M 17.746094 14.046875 " fill-opacity="1" fill-rule="nonzero"/><g clip-path="url(#0e7ed56e71)"><path fill="#ffffff" d="M 17.746094 39.402344 C 17.453125 39.402344 17.21875 39.167969 17.21875 38.875 L 17.21875 35.707031 C 17.21875 35.414062 17.453125 35.175781 17.746094 35.175781 C 18.039062 35.175781 18.273438 35.414062 18.273438 35.707031 L 18.273438 38.875 C 18.273438 39.167969 18.039062 39.402344 17.746094 39.402344 Z M 17.746094 39.402344 " fill-opacity="1" fill-rule="nonzero"/></g><g clip-path="url(#796493c497)"><path fill="#ffffff" d="M 17.746094 11.933594 C 17.453125 11.933594 17.21875 11.695312 17.21875 11.40625 L 17.21875 8.234375 C 17.21875 7.945312 17.453125 7.707031 17.746094 7.707031 C 18.039062 7.707031 18.273438 7.945312 18.273438 8.234375 L 18.273438 11.40625 C 18.273438 11.695312 18.039062 11.933594 17.746094 11.933594 Z M 17.746094 11.933594 " fill-opacity="1" fill-rule="nonzero"/></g><g clip-path="url(#2221ac3d39)"><path fill="#ffffff" d="M 5.597656 24.082031 L 2.425781 24.082031 C 2.132812 24.082031 1.898438 23.847656 1.898438 23.554688 C 1.898438 23.265625 2.132812 23.027344 2.425781 23.027344 L 5.597656 23.027344 C 5.886719 23.027344 6.125 23.265625 6.125 23.554688 C 6.125 23.847656 5.886719 24.082031 5.597656 24.082031 Z M 5.597656 24.082031 " fill-opacity="1" fill-rule="nonzero"/></g><g clip-path="url(#9a9be24a52)"><path fill="#ffffff" d="M 33.066406 24.082031 L 29.894531 24.082031 C 29.605469 24.082031 29.367188 23.847656 29.367188 23.554688 C 29.367188 23.265625 29.605469 23.027344 29.894531 23.027344 L 33.066406 23.027344 C 33.359375 23.027344 33.59375 23.265625 33.59375 23.554688 C 33.59375 23.847656 33.359375 24.082031 33.066406 24.082031 Z M 33.066406 24.082031 " fill-opacity="1" fill-rule="nonzero"/></g><path fill="#ffffff" d="M 15.105469 31.480469 C 15.023438 31.480469 14.941406 31.460938 14.867188 31.421875 C 14.648438 31.3125 14.535156 31.070312 14.589844 30.832031 L 16.027344 24.613281 L 13.519531 24.613281 C 13.3125 24.613281 13.125 24.492188 13.039062 24.304688 C 12.953125 24.117188 12.984375 23.894531 13.121094 23.738281 L 19.988281 15.8125 C 20.148438 15.628906 20.410156 15.578125 20.625 15.6875 C 20.84375 15.800781 20.957031 16.042969 20.902344 16.277344 L 19.464844 22.5 L 21.972656 22.5 C 22.179688 22.5 22.367188 22.621094 22.453125 22.808594 C 22.539062 22.996094 22.507812 23.214844 22.371094 23.371094 L 15.503906 31.296875 C 15.402344 31.417969 15.253906 31.480469 15.105469 31.480469 Z M 14.675781 23.554688 L 16.691406 23.554688 C 16.851562 23.554688 17.003906 23.628906 17.101562 23.753906 C 17.203125 23.878906 17.238281 24.046875 17.203125 24.203125 L 16.097656 29 L 20.816406 23.554688 L 18.800781 23.554688 C 18.640625 23.554688 18.488281 23.480469 18.390625 23.355469 C 18.289062 23.230469 18.25 23.066406 18.289062 22.910156 L 19.394531 18.113281 Z M 14.675781 23.554688 " fill-opacity="1" fill-rule="nonzero"/><path fill="#ffffff" d="M 28.578125 34.917969 C 28.445312 34.917969 28.308594 34.863281 28.207031 34.761719 L 25.964844 32.519531 C 25.757812 32.3125 25.757812 31.980469 25.964844 31.773438 C 26.171875 31.566406 26.503906 31.566406 26.710938 31.773438 L 28.953125 34.015625 C 29.160156 34.222656 29.160156 34.554688 28.953125 34.761719 C 28.847656 34.863281 28.714844 34.917969 28.578125 34.917969 Z M 28.578125 34.917969 " fill-opacity="1" fill-rule="nonzero"/><path fill="#ffffff" d="M 9.15625 15.492188 C 9.019531 15.492188 8.882812 15.441406 8.78125 15.335938 L 6.539062 13.097656 C 6.332031 12.890625 6.332031 12.554688 6.539062 12.347656 C 6.746094 12.144531 7.082031 12.144531 7.285156 12.347656 L 9.527344 14.589844 C 9.734375 14.796875 9.734375 15.128906 9.527344 15.335938 C 9.425781 15.441406 9.289062 15.492188 9.15625 15.492188 Z M 9.15625 15.492188 " fill-opacity="1" fill-rule="nonzero"/><path fill="#ffffff" d="M 6.914062 34.917969 C 6.777344 34.917969 6.644531 34.863281 6.539062 34.761719 C 6.332031 34.554688 6.332031 34.222656 6.539062 34.015625 L 8.78125 31.773438 C 8.988281 31.566406 9.324219 31.566406 9.527344 31.773438 C 9.734375 31.980469 9.734375 32.3125 9.527344 32.519531 L 7.285156 34.761719 C 7.183594 34.863281 7.046875 34.917969 6.914062 34.917969 Z M 6.914062 34.917969 " fill-opacity="1" fill-rule="nonzero"/><path fill="#ffffff" d="M 26.335938 15.492188 C 26.203125 15.492188 26.066406 15.441406 25.964844 15.335938 C 25.757812 15.128906 25.757812 14.796875 25.964844 14.589844 L 28.207031 12.347656 C 28.410156 12.144531 28.746094 12.144531 28.953125 12.347656 C 29.160156 12.554688 29.160156 12.890625 28.953125 13.097656 L 26.710938 15.335938 C 26.609375 15.441406 26.472656 15.492188 26.335938 15.492188 Z M 26.335938 15.492188 " fill-opacity="1" fill-rule="nonzero"/><g clip-path="url(#875d2f3df0)"><g clip-path="url(#6cc5ec3544)"><path fill="#ffffff" d="M 9.308594 15.117188 L 26.09375 15.117188 L 26.09375 31.902344 L 9.308594 31.902344 Z M 9.308594 15.117188 " fill-opacity="1" fill-rule="nonzero"/></g></g><g clip-path="url(#071758dc66)"><path fill="#000000" d="M 21.039062 22.390625 C 21.296875 22.222656 21.476562 21.964844 21.558594 21.65625 C 21.640625 21.332031 21.597656 20.996094 21.4375 20.707031 C 21.117188 20.125 20.410156 19.914062 19.847656 20.226562 L 18.773438 18.28125 C 18.632812 18.023438 18.402344 17.839844 18.128906 17.761719 C 17.851562 17.6875 17.566406 17.726562 17.320312 17.875 C 17.074219 18.023438 16.898438 18.261719 16.824219 18.550781 C 16.769531 18.769531 16.777344 18.992188 16.84375 19.199219 C 16.335938 20.542969 15.257812 21.914062 13.792969 23.082031 C 13.769531 23.066406 13.746094 23.054688 13.71875 23.046875 C 13.652344 23.03125 13.585938 23.039062 13.527344 23.074219 L 12.15625 23.902344 C 11.699219 24.179688 11.367188 24.632812 11.230469 25.171875 C 11.089844 25.710938 11.160156 26.277344 11.425781 26.757812 C 11.796875 27.429688 12.46875 27.804688 13.160156 27.804688 C 13.5 27.804688 13.839844 27.714844 14.15625 27.523438 L 14.234375 27.476562 L 15.742188 29.539062 C 15.847656 29.683594 15.992188 29.765625 16.164062 29.78125 C 16.183594 29.785156 16.203125 29.785156 16.222656 29.785156 C 16.371094 29.785156 16.507812 29.730469 16.617188 29.621094 L 17.035156 29.226562 C 17.265625 29.007812 17.296875 28.644531 17.109375 28.386719 L 15.6875 26.433594 C 17.375 25.703125 19.03125 25.417969 20.386719 25.625 C 20.59375 25.871094 20.890625 26.007812 21.191406 26.007812 C 21.371094 26.007812 21.554688 25.960938 21.722656 25.859375 C 22.230469 25.550781 22.40625 24.867188 22.113281 24.335938 Z M 21 20.972656 C 21.09375 21.136719 21.117188 21.332031 21.070312 21.519531 C 21.027344 21.691406 20.925781 21.835938 20.789062 21.933594 L 20.097656 20.683594 C 20.421875 20.515625 20.820312 20.640625 21 20.972656 Z M 13.160156 27.277344 C 12.640625 27.277344 12.140625 26.996094 11.863281 26.496094 C 11.664062 26.132812 11.613281 25.714844 11.714844 25.308594 C 11.820312 24.902344 12.066406 24.566406 12.410156 24.359375 L 13.558594 23.664062 L 15.054688 26.371094 L 13.902344 27.066406 C 13.667969 27.210938 13.414062 27.277344 13.160156 27.277344 Z M 16.695312 28.835938 L 16.28125 29.230469 C 16.257812 29.253906 16.238281 29.257812 16.207031 29.257812 C 16.179688 29.253906 16.160156 29.242188 16.144531 29.21875 L 14.671875 27.210938 L 15.332031 26.8125 L 16.707031 28.703125 C 16.738281 28.746094 16.730469 28.800781 16.695312 28.835938 Z M 15.417969 25.980469 L 14.066406 23.527344 C 15.476562 22.410156 16.550781 21.101562 17.144531 19.792969 L 20.050781 25.054688 C 18.667969 24.941406 17.050781 25.261719 15.417969 25.980469 Z M 21.472656 25.402344 C 21.203125 25.5625 20.859375 25.46875 20.703125 25.1875 L 17.363281 19.132812 C 17.210938 18.851562 17.300781 18.492188 17.570312 18.328125 C 17.65625 18.277344 17.753906 18.25 17.847656 18.25 C 17.898438 18.25 17.949219 18.257812 17.996094 18.273438 C 18.144531 18.3125 18.265625 18.410156 18.339844 18.546875 L 21.675781 24.597656 C 21.832031 24.878906 21.738281 25.238281 21.472656 25.402344 Z M 21.746094 20.523438 C 21.675781 20.394531 21.714844 20.234375 21.835938 20.160156 L 22.847656 19.550781 C 22.96875 19.476562 23.121094 19.519531 23.191406 19.648438 C 23.261719 19.773438 23.21875 19.933594 23.097656 20.007812 L 22.089844 20.617188 C 22.050781 20.640625 22.003906 20.652344 21.964844 20.652344 C 21.875 20.652344 21.792969 20.605469 21.746094 20.523438 Z M 20.578125 18.824219 L 21.195312 17.707031 C 21.265625 17.582031 21.417969 17.539062 21.539062 17.613281 C 21.660156 17.683594 21.699219 17.847656 21.632812 17.972656 L 21.015625 19.089844 C 20.96875 19.171875 20.882812 19.21875 20.796875 19.21875 C 20.753906 19.21875 20.710938 19.207031 20.671875 19.183594 C 20.550781 19.113281 20.511719 18.949219 20.578125 18.824219 Z M 24.046875 22.164062 C 24.046875 22.308594 23.9375 22.425781 23.796875 22.425781 L 22.566406 22.425781 C 22.425781 22.425781 22.316406 22.308594 22.316406 22.164062 C 22.316406 22.019531 22.425781 21.898438 22.566406 21.898438 L 23.796875 21.898438 C 23.9375 21.898438 24.046875 22.019531 24.046875 22.164062 Z M 24.046875 22.164062 " fill-opacity="1" fill-rule="nonzero"/></g></svg>