<svg xmlns="http://www.w3.org/2000/svg" xmlns:xlink="http://www.w3.org/1999/xlink" width="500" zoomAndPan="magnify" viewBox="0 0 375 374.999991" height="500" preserveAspectRatio="xMidYMid meet" version="1.0"><defs><clipPath id="261c384636"><path d="M 0 13 L 375 13 L 375 362.390625 L 0 362.390625 Z M 0 13 " clip-rule="nonzero"/></clipPath></defs><g clip-path="url(#261c384636)"><path fill="#18f5ff" d="M 362.148438 279.828125 L 351.0625 280.394531 C 348.132812 280.394531 346.402344 282.160156 345.804688 285.089844 C 344.039062 293.253906 341.140625 300.285156 337.046875 306.714844 C 335.28125 309.046875 335.882812 311.980469 337.613281 313.746094 L 344.636719 321.910156 L 334.117188 332.4375 L 325.925781 324.839844 C 324.195312 323.074219 321.265625 323.074219 318.9375 324.242188 C 312.511719 328.9375 304.921875 331.835938 297.328125 333.601562 C 294.398438 334.167969 292.667969 336.535156 292.667969 338.867188 L 292.070312 349.960938 L 277.453125 349.960938 L 276.855469 338.867188 C 276.855469 335.933594 275.125 334.167969 272.195312 333.601562 C 264.003906 331.835938 257.011719 328.9375 250.589844 324.242188 C 248.257812 322.507812 245.328125 323.074219 243.597656 324.839844 L 235.40625 332.4375 L 224.320312 321.910156 L 231.910156 313.710938 C 233.640625 311.980469 233.640625 309.046875 232.476562 306.714844 C 231.3125 304.949219 230.148438 302.617188 228.980469 300.285156 C 226.652344 295.585938 224.886719 290.355469 223.722656 285.089844 C 223.121094 282.726562 220.792969 280.394531 218.460938 280.394531 L 207.375 279.828125 L 207.375 265.199219 L 218.460938 264.632812 C 221.390625 264.632812 223.121094 262.867188 223.722656 259.933594 C 225.484375 252.339844 228.382812 244.742188 232.476562 237.710938 C 234.242188 235.378906 233.640625 232.480469 231.910156 230.714844 L 224.320312 222.519531 L 234.808594 212.023438 L 242.996094 219.621094 C 244.761719 221.351562 247.660156 221.351562 250.023438 220.1875 C 256.449219 215.523438 264.039062 212.589844 271.628906 211.421875 C 273.960938 210.824219 276.289062 208.492188 276.289062 206.160156 L 276.890625 195.0625 L 291.503906 195.0625 L 292.070312 206.160156 C 292.070312 209.089844 293.800781 210.824219 296.765625 211.421875 C 299.660156 211.988281 303.1875 213.1875 306.085938 214.355469 C 310.78125 216.089844 314.839844 217.855469 318.9375 220.785156 C 321.265625 222.519531 324.195312 221.953125 325.960938 220.1875 L 334.152344 212.589844 L 344.636719 222.519531 L 337.046875 230.714844 C 335.28125 232.480469 335.28125 235.378906 336.449219 237.746094 C 341.140625 244.175781 344.039062 251.773438 345.804688 259.367188 C 346.402344 261.703125 348.734375 264.035156 351.0625 264.035156 L 362.148438 264.632812 Z M 21.605469 97.441406 L 21.605469 242.410156 C 18.710938 250.605469 15.179688 259.933594 11.683594 269.898438 L 11.683594 97.441406 Z M 33.292969 24.9375 L 229.546875 24.9375 L 229.546875 122.5625 C 221.390625 126.660156 216.695312 134.855469 216.695312 144.1875 L 216.695312 152.382812 L 61.324219 152.382812 C 57.828125 152.382812 54.332031 154.714844 53.167969 158.214844 C 37.984375 198.5625 46.140625 176.9375 33.292969 211.421875 Z M 266.96875 97.441406 L 266.96875 119.0625 L 241.234375 119.0625 L 241.234375 97.441406 Z M 303.753906 144.1875 L 303.753906 152.382812 L 228.382812 152.382812 L 228.382812 144.1875 C 228.382812 138.355469 231.910156 133.65625 237.171875 131.925781 C 238.335938 131.324219 239.5 131.324219 241.234375 131.324219 L 290.90625 131.324219 C 297.894531 131.324219 303.753906 137.1875 303.753906 144.1875 Z M 304.320312 200.894531 L 303.753906 200.894531 L 303.15625 188.632812 C 303.15625 185.703125 300.226562 182.769531 297.328125 182.769531 L 271.03125 182.769531 C 268.132812 182.769531 265.203125 185.101562 265.203125 188.632812 L 264.605469 200.894531 C 258.179688 202.660156 252.351562 204.992188 247.09375 207.925781 L 237.738281 199.730469 C 235.40625 197.394531 231.910156 197.960938 229.546875 199.730469 L 210.871094 217.855469 C 208.539062 220.1875 208.539062 223.683594 210.871094 226.050781 L 219.0625 235.378906 C 216.132812 241.242188 213.203125 247.074219 212.035156 252.9375 L 199.785156 253.503906 C 196.855469 253.503906 193.925781 256.4375 193.925781 259.367188 L 193.925781 285.65625 C 193.925781 288.589844 196.289062 291.523438 199.785156 291.523438 L 212.035156 292.089844 C 212.636719 293.855469 213.203125 295.585938 213.800781 297.351562 L 14.015625 297.351562 C 15.179688 293.855469 65.417969 157.648438 63.089844 164.644531 L 317.769531 164.644531 Z M 368.007812 253.503906 L 355.722656 252.9375 C 353.960938 246.507812 351.664062 240.644531 348.734375 235.378906 L 356.921875 226.050781 C 359.253906 223.683594 358.652344 220.1875 356.921875 217.855469 L 338.8125 199.730469 C 336.449219 197.394531 332.953125 197.394531 330.621094 199.730469 L 321.265625 207.925781 C 319.503906 206.757812 317.171875 205.558594 315.441406 204.992188 L 330.621094 164.078125 C 332.953125 158.214844 328.292969 152.382812 322.433594 152.382812 L 315.441406 152.382812 L 315.441406 144.1875 C 315.441406 130.757812 304.320312 119.628906 290.90625 119.628906 L 279.21875 119.628906 L 279.21875 95.074219 C 279.21875 90.410156 275.125 86.3125 270.429688 86.3125 L 241.832031 86.3125 L 241.832031 19.074219 C 241.832031 15.574219 239.46875 13.242188 236.007812 13.242188 L 27.464844 13.242188 C 23.9375 13.242188 21.605469 15.574219 21.605469 19.074219 L 21.605469 85.746094 L 8.753906 85.746094 C 4.09375 85.746094 0 89.808594 0 94.507812 L 0 299.683594 C 0 304.382812 4.09375 308.449219 8.753906 308.449219 L 219.625 308.449219 C 219.625 308.449219 219.625 309.046875 220.226562 309.046875 L 212.035156 318.410156 C 209.707031 320.742188 210.273438 324.242188 212.035156 326.574219 L 230.746094 345.296875 C 233.042969 347.628906 236.570312 347.628906 238.902344 345.296875 L 248.257812 337.101562 C 253.484375 340.035156 259.34375 342.964844 265.769531 344.132812 L 266.367188 356.394531 C 266.367188 359.324219 269.265625 362.257812 272.195312 362.257812 L 298.496094 362.257812 C 301.390625 362.257812 304.320312 359.890625 304.320312 356.394531 L 304.921875 344.132812 C 311.347656 342.367188 317.171875 340.035156 322.433594 337.101562 L 331.753906 345.296875 C 334.117188 347.628906 337.613281 347.03125 339.945312 345.296875 L 358.054688 326.574219 C 360.386719 324.242188 360.386719 320.742188 358.054688 318.410156 L 349.863281 309.046875 C 352.792969 303.78125 355.722656 297.953125 356.890625 291.523438 L 369.175781 290.921875 C 372.070312 290.921875 375 287.988281 375 285.089844 L 375 258.769531 C 373.835938 255.835938 371.503906 253.503906 367.976562 253.503906 L 368.007812 253.503906 " fill-opacity="1" fill-rule="nonzero"/></g><path fill="#18f5ff" d="M 284.480469 303.78125 C 266.96875 303.78125 252.917969 289.753906 252.917969 272.230469 C 252.917969 254.671875 266.96875 240.644531 284.480469 240.644531 C 301.992188 240.644531 316.007812 254.671875 316.007812 272.230469 C 316.007812 289.753906 301.992188 303.78125 284.480469 303.78125 Z M 284.480469 228.949219 C 260.542969 228.949219 241.234375 248.242188 241.234375 272.230469 C 241.234375 296.1875 260.542969 315.476562 284.480469 315.476562 C 308.417969 315.476562 327.691406 296.1875 327.691406 272.230469 C 327.691406 248.242188 308.417969 228.949219 284.480469 228.949219 " fill-opacity="1" fill-rule="nonzero"/><path fill="#18f5ff" d="M 66.019531 60.023438 L 197.421875 60.023438 C 200.949219 60.023438 203.28125 57.65625 203.28125 54.160156 C 203.28125 50.660156 200.949219 48.328125 197.421875 48.328125 L 66.019531 48.328125 C 62.488281 48.328125 60.160156 50.660156 60.160156 54.160156 C 60.160156 57.65625 62.488281 60.023438 66.019531 60.023438 " fill-opacity="1" fill-rule="nonzero"/><path fill="#18f5ff" d="M 66.019531 95.675781 L 197.421875 95.675781 C 200.949219 95.675781 203.28125 93.34375 203.28125 89.84375 C 203.28125 86.3125 200.949219 83.980469 197.421875 83.980469 L 66.019531 83.980469 C 62.488281 83.980469 60.160156 86.3125 60.160156 89.808594 C 60.160156 93.34375 62.488281 95.675781 66.019531 95.675781 " fill-opacity="1" fill-rule="nonzero"/><path fill="#18f5ff" d="M 66.019531 131.324219 L 197.421875 131.324219 C 200.949219 131.324219 203.28125 128.992188 203.28125 125.496094 C 203.28125 121.996094 200.949219 119.628906 197.421875 119.628906 L 66.019531 119.628906 C 62.488281 119.628906 60.160156 121.996094 60.160156 125.496094 C 60.160156 128.425781 62.488281 131.324219 66.019531 131.324219 " fill-opacity="1" fill-rule="nonzero"/></svg>