<svg xmlns="http://www.w3.org/2000/svg" xmlns:xlink="http://www.w3.org/1999/xlink" width="500" zoomAndPan="magnify" viewBox="0 0 375 374.999991" height="500" preserveAspectRatio="xMidYMid meet" version="1.0"><defs><clipPath id="347c323df4"><path d="M 13.359375 1 L 361 1 L 361 374 L 13.359375 374 Z M 13.359375 1 " clip-rule="nonzero"/></clipPath></defs><g clip-path="url(#347c323df4)"><path fill="#18f5ff" d="M 255.210938 96.058594 C 255.210938 103.480469 249.207031 109.507812 241.777344 109.507812 L 80.539062 109.507812 C 73.109375 109.507812 67.105469 103.480469 67.105469 96.058594 C 67.105469 88.636719 73.109375 82.613281 80.539062 82.613281 L 241.777344 82.613281 C 249.207031 82.613281 255.210938 88.636719 255.210938 96.058594 Z M 228.339844 136.402344 L 80.539062 136.402344 C 73.109375 136.402344 67.105469 142.425781 67.105469 149.847656 C 67.105469 157.269531 73.109375 163.296875 80.539062 163.296875 L 228.339844 163.296875 C 235.769531 163.296875 241.777344 157.269531 241.777344 149.847656 C 241.777344 142.425781 235.769531 136.402344 228.339844 136.402344 Z M 201.46875 190.1875 L 80.539062 190.1875 C 73.109375 190.1875 67.105469 196.214844 67.105469 203.636719 C 67.105469 211.058594 73.109375 217.082031 80.539062 217.082031 L 201.46875 217.082031 C 208.898438 217.082031 214.902344 211.058594 214.902344 203.636719 C 214.902344 196.214844 208.898438 190.1875 201.46875 190.1875 Z M 174.59375 243.976562 L 80.539062 243.976562 C 73.109375 243.976562 67.105469 250.003906 67.105469 257.425781 C 67.105469 264.847656 73.109375 270.871094 80.539062 270.871094 L 174.59375 270.871094 C 182.023438 270.871094 188.03125 264.847656 188.03125 257.425781 C 188.03125 250.003906 182.023438 243.976562 174.59375 243.976562 Z M 357.382812 196.039062 L 285.660156 343.136719 C 280.917969 352.832031 272.707031 360.09375 262.535156 363.589844 L 237.128906 372.332031 C 235.691406 372.828125 234.199219 373.070312 232.761719 373.070312 C 227.183594 373.070312 221.972656 369.574219 220.0625 363.992188 L 215.777344 351.542969 L 53.667969 351.542969 C 31.445312 351.542969 13.359375 333.441406 13.359375 311.199219 L 13.359375 42.269531 C 13.359375 20.027344 31.445312 1.929688 53.667969 1.929688 L 268.648438 1.929688 C 290.871094 1.929688 308.957031 20.027344 308.957031 42.269531 L 308.957031 145.652344 C 313.027344 145.625 317.085938 146.433594 320.863281 148.273438 L 345.019531 160.066406 C 351.46875 163.214844 356.308594 168.699219 358.644531 175.492188 C 360.984375 182.28125 360.539062 189.570312 357.382812 196.027344 Z M 282.085938 166.496094 L 282.085938 42.269531 C 282.085938 34.863281 276.066406 28.824219 268.648438 28.824219 L 53.667969 28.824219 C 46.25 28.824219 40.230469 34.863281 40.230469 42.269531 L 40.230469 311.214844 C 40.230469 318.625 46.25 324.660156 53.667969 324.660156 L 209.234375 324.660156 C 209.339844 318.851562 210.589844 313.097656 213.210938 307.730469 Z M 333.238281 184.246094 L 309.078125 172.453125 L 237.355469 319.539062 C 235.796875 322.722656 235.570312 326.460938 236.722656 329.824219 L 241.089844 342.519531 L 253.789062 338.148438 C 257.1875 336.976562 259.929688 334.542969 261.5 331.316406 L 333.222656 184.230469 Z M 333.238281 184.246094 " fill-opacity="1" fill-rule="nonzero"/></g></svg>