<svg xmlns="http://www.w3.org/2000/svg" xmlns:xlink="http://www.w3.org/1999/xlink" width="500" zoomAndPan="magnify" viewBox="0 0 375 374.999991" height="500" preserveAspectRatio="xMidYMid meet" version="1.0"><defs><clipPath id="f70cdc405a"><path d="M 8.203125 0 L 366.703125 0 L 366.703125 254 L 8.203125 254 Z M 8.203125 0 " clip-rule="nonzero"/></clipPath></defs><g clip-path="url(#f70cdc405a)"><path fill="#18f5ff" d="M 287.339844 96.125 C 276.21875 96.125 265.644531 98.46875 256.042969 102.640625 C 258.375 95.203125 259.636719 87.292969 259.636719 79.09375 C 259.636719 35.601562 224.253906 0.207031 180.792969 0.207031 C 137.300781 0.207031 101.917969 35.597656 101.917969 79.09375 C 101.917969 79.304688 101.949219 79.507812 101.949219 79.714844 C 92.191406 72.53125 80.183594 68.230469 67.164062 68.230469 C 34.699219 68.230469 8.277344 94.644531 8.277344 127.121094 C 8.277344 142.632812 14.253906 157.28125 25.113281 168.347656 C 34.679688 178.101562 47.078125 184.121094 60.472656 185.628906 L 56.269531 170.261719 C 37.019531 165.34375 22.617188 147.753906 22.617188 127.121094 C 22.617188 102.5625 42.605469 82.589844 67.160156 82.589844 C 85.410156 82.589844 101.109375 93.628906 107.980469 109.371094 C 108.097656 109.644531 108.21875 109.921875 108.328125 110.195312 C 110.484375 115.417969 111.6875 121.128906 111.6875 127.121094 C 111.6875 139.039062 106.964844 150.148438 98.796875 158.390625 L 102.882812 173.90625 C 115.304688 164.425781 123.367188 150.597656 125.46875 135.234375 C 139.71875 149.273438 159.25 157.96875 180.785156 157.96875 C 191.90625 157.96875 202.480469 155.621094 212.085938 151.449219 C 209.75 158.898438 208.484375 166.808594 208.484375 175.015625 C 208.484375 218.507812 243.851562 253.875 287.324219 253.875 C 330.804688 253.875 366.191406 218.5 366.191406 175.015625 C 366.203125 131.515625 330.816406 96.125 287.339844 96.125 Z M 180.796875 143.605469 C 154.261719 143.605469 131.441406 127.5 121.539062 104.5625 C 121.433594 104.324219 121.335938 104.082031 121.234375 103.84375 C 118.054688 96.214844 116.28125 87.867188 116.28125 79.097656 C 116.28125 43.515625 145.214844 14.566406 180.796875 14.566406 C 216.359375 14.566406 245.28125 43.515625 245.28125 79.097656 C 245.277344 114.671875 216.355469 143.605469 180.796875 143.605469 Z M 287.339844 239.519531 C 251.78125 239.519531 222.851562 210.582031 222.851562 175.007812 C 222.851562 139.417969 251.78125 110.476562 287.339844 110.476562 C 322.914062 110.476562 351.855469 139.417969 351.855469 175.007812 C 351.855469 210.582031 322.914062 239.519531 287.339844 239.519531 Z M 287.339844 239.519531 " fill-opacity="1" fill-rule="nonzero"/></g><path fill="#18f5ff" d="M 299.441406 172.589844 C 297.246094 170.867188 293.394531 168.863281 287.632812 166.464844 C 283.988281 165 282.488281 163.875 281.839844 163.171875 C 281.03125 162.316406 280.605469 161.492188 280.605469 160.738281 C 280.605469 159.792969 281.039062 158.992188 281.945312 158.214844 C 282.902344 157.398438 284.136719 157.007812 285.734375 157.007812 C 288.597656 157.007812 291.597656 158.585938 294.625 161.695312 C 295.144531 162.222656 295.980469 162.230469 296.515625 161.722656 L 303.78125 154.640625 C 304.046875 154.398438 304.191406 154.054688 304.191406 153.699219 C 304.199219 153.339844 304.050781 152.996094 303.804688 152.742188 C 301.355469 150.296875 299.3125 148.605469 297.507812 147.566406 C 295.921875 146.667969 294.066406 145.925781 291.972656 145.371094 L 291.972656 134.628906 C 291.972656 133.894531 291.382812 133.292969 290.648438 133.292969 L 283.523438 133.292969 C 282.78125 133.292969 282.1875 133.894531 282.1875 134.628906 L 282.1875 144.695312 C 278.226562 145.128906 274.851562 146.683594 272.125 149.332031 C 269.128906 152.300781 267.605469 155.90625 267.605469 160.023438 C 267.605469 162.539062 268.175781 164.929688 269.3125 167.128906 C 270.433594 169.289062 272.144531 171.269531 274.414062 173.023438 C 276.636719 174.734375 280.6875 176.941406 286.796875 179.769531 C 290.167969 181.316406 291.628906 182.589844 292.253906 183.363281 C 293.0625 184.425781 293.480469 185.6875 293.480469 187.101562 C 293.480469 188.808594 292.84375 190.261719 291.523438 191.539062 C 290.203125 192.808594 288.671875 193.429688 286.828125 193.429688 C 282.929688 193.429688 278.765625 191.105469 274.441406 186.515625 C 274.191406 186.253906 273.851562 186.097656 273.480469 186.097656 C 273.128906 186.097656 272.773438 186.242188 272.523438 186.5 L 265.34375 193.804688 C 264.835938 194.316406 264.828125 195.132812 265.328125 195.652344 C 268.15625 198.683594 271.25 201.121094 274.484375 202.910156 C 276.632812 204.089844 279.226562 204.925781 282.183594 205.371094 L 282.183594 214.027344 C 282.183594 214.765625 282.777344 215.363281 283.519531 215.363281 L 290.644531 215.363281 C 291.382812 215.363281 291.96875 214.765625 291.96875 214.027344 L 291.96875 205.117188 C 295.148438 204.347656 297.613281 203.296875 299.480469 201.910156 C 301.492188 200.398438 303.164062 198.308594 304.433594 195.695312 C 305.710938 193.050781 306.351562 190.1875 306.351562 187.199219 C 306.351562 184.175781 305.734375 181.390625 304.542969 178.945312 C 303.371094 176.472656 301.652344 174.335938 299.441406 172.589844 Z M 299.441406 172.589844 " fill-opacity="1" fill-rule="nonzero"/><path fill="#18f5ff" d="M 193.222656 76.347656 C 191.042969 74.621094 187.1875 72.625 181.421875 70.230469 C 177.734375 68.710938 176.25 67.609375 175.628906 66.933594 C 174.8125 66.074219 174.398438 65.253906 174.398438 64.496094 C 174.398438 63.546875 174.820312 62.753906 175.730469 61.96875 C 176.679688 61.160156 177.925781 60.765625 179.523438 60.765625 C 182.378906 60.765625 185.371094 62.339844 188.414062 65.453125 C 188.925781 65.980469 189.773438 65.988281 190.292969 65.476562 L 197.574219 58.402344 C 197.832031 58.152344 197.972656 57.8125 197.980469 57.453125 C 197.980469 57.101562 197.835938 56.753906 197.582031 56.503906 C 195.140625 54.058594 193.089844 52.359375 191.289062 51.316406 C 189.726562 50.429688 187.871094 49.6875 185.765625 49.105469 L 185.765625 38.382812 C 185.765625 37.644531 185.167969 37.046875 184.429688 37.046875 L 177.308594 37.046875 C 176.566406 37.046875 175.96875 37.648438 175.96875 38.382812 L 175.96875 48.453125 C 172.015625 48.882812 168.636719 50.4375 165.910156 53.089844 C 162.902344 56.070312 161.367188 59.667969 161.367188 63.785156 C 161.367188 66.261719 161.949219 68.648438 163.09375 70.886719 C 164.222656 73.050781 165.929688 75.035156 168.195312 76.773438 C 170.351562 78.457031 174.414062 80.667969 180.589844 83.523438 C 183.949219 85.070312 185.421875 86.347656 186.042969 87.117188 C 186.855469 88.183594 187.273438 89.441406 187.273438 90.863281 C 187.273438 92.566406 186.625 94.019531 185.308594 95.296875 C 183.996094 96.570312 182.445312 97.183594 180.589844 97.183594 C 176.710938 97.183594 172.546875 94.859375 168.226562 90.273438 C 167.980469 90.007812 167.632812 89.855469 167.273438 89.851562 C 166.910156 89.867188 166.558594 89.992188 166.304688 90.257812 L 159.128906 97.554688 C 158.625 98.066406 158.617188 98.882812 159.105469 99.40625 C 161.945312 102.429688 165.027344 104.875 168.265625 106.664062 C 170.425781 107.847656 173.007812 108.675781 175.964844 109.125 L 175.964844 117.777344 C 175.964844 118.519531 176.566406 119.117188 177.304688 119.117188 L 184.421875 119.117188 C 185.164062 119.117188 185.761719 118.515625 185.761719 117.777344 L 185.761719 108.867188 C 188.941406 108.101562 191.402344 107.050781 193.28125 105.65625 C 195.300781 104.117188 196.960938 102.027344 198.226562 99.449219 C 199.492188 96.800781 200.140625 93.945312 200.140625 90.957031 C 200.140625 87.933594 199.527344 85.152344 198.328125 82.699219 C 197.152344 80.226562 195.433594 78.09375 193.222656 76.347656 Z M 193.222656 76.347656 " fill-opacity="1" fill-rule="nonzero"/><path fill="#18f5ff" d="M 225.441406 343.039062 L 216.09375 307.191406 C 214.90625 300.519531 212.414062 295.359375 209.972656 290.402344 C 208.410156 287.246094 206.796875 283.984375 205.402344 280.113281 C 205.070312 279.191406 205.109375 278.75 205.753906 275.8125 C 207.320312 268.625 209.960938 256.582031 201.433594 222.683594 L 199.523438 215.089844 C 199.449219 212.132812 198.476562 208.199219 194.835938 204.335938 C 184.160156 192.972656 156.246094 188.945312 135.582031 188.945312 C 128.46875 188.945312 117.011719 189.441406 107.695312 192.167969 L 102.890625 173.910156 L 98.804688 158.394531 L 95.042969 144.097656 C 91.554688 130.894531 81.863281 126.191406 73.960938 126.191406 C 66.863281 126.191406 60.023438 129.605469 55.664062 135.3125 C 51.417969 140.878906 50.128906 147.792969 52.042969 154.777344 L 56.273438 170.273438 L 60.480469 185.640625 L 74.945312 238.5625 C 68.058594 234.082031 61.027344 231.945312 53.488281 231.945312 C 49.285156 231.945312 44.96875 232.574219 39.5 233.988281 C 31.421875 236.09375 26.703125 239.910156 25.496094 245.34375 C 23.46875 254.445312 32.484375 261.925781 38.460938 266.894531 C 44.074219 271.546875 48.226562 274.644531 51.5625 277.128906 C 59.050781 282.710938 61.578125 284.589844 68.015625 294.890625 C 70.21875 298.441406 72.136719 301.3125 73.886719 303.695312 C 81.066406 313.347656 89.601562 317.398438 97.136719 320.96875 C 104.65625 324.53125 110.109375 327.144531 113.195312 334.605469 L 122.359375 369.851562 C 123.199219 373.082031 126.101562 375.226562 129.296875 375.226562 C 129.898438 375.226562 130.503906 375.148438 131.101562 374.992188 L 220.300781 351.808594 C 222.136719 351.328125 223.714844 350.144531 224.683594 348.496094 C 225.640625 346.839844 225.917969 344.882812 225.441406 343.039062 Z M 103.269531 307.988281 C 96.667969 304.851562 90.433594 301.898438 85.421875 295.152344 C 83.921875 293.097656 82.203125 290.527344 80.175781 287.277344 C 72.320312 274.683594 68.25 271.652344 60.132812 265.605469 C 56.933594 263.21875 52.945312 260.25 47.617188 255.835938 C 43.34375 252.285156 41.25 250.125 40.265625 248.808594 C 40.894531 248.535156 41.8125 248.207031 43.09375 247.875 C 47.335938 246.777344 50.542969 246.285156 53.484375 246.285156 C 58.976562 246.285156 66.6875 247.824219 77.5625 259.800781 C 78.597656 260.9375 81.335938 263.945312 85.351562 263.945312 C 87.859375 263.945312 90.164062 262.777344 91.660156 260.75 C 94.523438 256.863281 93.976562 251.5 89.097656 235.800781 C 88.960938 235.347656 88.855469 235.019531 88.835938 234.910156 L 65.882812 150.984375 C 65.167969 148.351562 65.566406 146.011719 67.085938 144.015625 C 68.695312 141.90625 71.398438 140.539062 73.96875 140.539062 C 78.355469 140.539062 80.3125 144.464844 81.175781 147.753906 L 95.9375 203.789062 C 96.515625 206.011719 98.132812 207.816406 100.269531 208.644531 C 102.414062 209.476562 104.820312 209.238281 106.757812 207.996094 C 110.132812 205.820312 119.71875 203.28125 135.59375 203.28125 C 157.234375 203.28125 178.664062 208.054688 184.394531 214.152344 C 184.582031 214.359375 185.210938 215.0625 185.195312 215.488281 C 185.148438 216.226562 185.210938 216.964844 185.394531 217.679688 L 187.523438 226.183594 C 195.230469 256.804688 193.050781 266.78125 191.742188 272.738281 C 190.953125 276.335938 190.144531 280.042969 191.910156 284.960938 C 193.578125 289.609375 195.453125 293.40625 197.109375 296.753906 C 198.367188 299.304688 199.480469 301.570312 200.371094 303.867188 L 123.765625 323.808594 C 118.339844 315.125 110.402344 311.367188 103.269531 307.988281 Z M 134.445312 359.28125 L 128.734375 337.34375 L 174.765625 325.363281 L 204.023438 317.75 L 209.746094 339.707031 Z M 134.445312 359.28125 " fill-opacity="1" fill-rule="nonzero"/></svg>